<svg width="1251" height="196" viewBox="0 0 1251 196" fill="none" xmlns="http://www.w3.org/2000/svg">
<rect width="1251" height="196" fill="#1E1E1E"/>
<path d="M63.875 120.375H110.625L87.625 47.875L63.875 120.375ZM66.25 5.75H109.75L175 190H133.25L121.375 152.125H53.5L40.75 190H0.5L66.25 5.75ZM221.795 37.75V78.375H267.045C275.128 78.375 281.67 76.875 286.67 73.875C291.753 70.7917 294.295 65.375 294.295 57.625C294.295 49.0417 290.962 43.375 284.295 40.625C278.545 38.7083 271.212 37.75 262.295 37.75H221.795ZM221.795 108.875V158H267.045C275.128 158 281.42 156.917 285.92 154.75C294.087 150.75 298.17 143.083 298.17 131.75C298.17 122.167 294.212 115.583 286.295 112C281.878 110 275.67 108.958 267.67 108.875H221.795ZM274.545 5.75C297.128 6.08333 313.128 12.625 322.545 25.375C328.212 33.2083 331.045 42.5833 331.045 53.5C331.045 64.75 328.212 73.7917 322.545 80.625C319.378 84.4583 314.712 87.9583 308.545 91.125C317.962 94.5417 325.045 99.9583 329.795 107.375C334.628 114.792 337.045 123.792 337.045 134.375C337.045 145.292 334.295 155.083 328.795 163.75C325.295 169.5 320.92 174.333 315.67 178.25C309.753 182.75 302.753 185.833 294.67 187.5C286.67 189.167 277.962 190 268.545 190H185.045V5.75H274.545ZM436.84 162.5C452.09 162.5 464.173 156.875 473.09 145.625C482.09 134.375 486.59 118.375 486.59 97.625C486.59 76.9583 482.09 61 473.09 49.75C464.173 38.4167 452.09 32.75 436.84 32.75C421.59 32.75 409.423 38.375 400.34 49.625C391.257 60.875 386.715 76.875 386.715 97.625C386.715 118.375 391.257 134.375 400.34 145.625C409.423 156.875 421.59 162.5 436.84 162.5ZM525.09 97.625C525.09 130.708 515.798 156.042 497.215 173.625C483.298 187.958 463.173 195.125 436.84 195.125C410.507 195.125 390.382 187.958 376.465 173.625C357.798 156.042 348.465 130.708 348.465 97.625C348.465 63.875 357.798 38.5417 376.465 21.625C390.382 7.29167 410.507 0.125 436.84 0.125C463.173 0.125 483.298 7.29167 497.215 21.625C515.798 38.5417 525.09 63.875 525.09 97.625ZM540.51 5.75H579.635V119C579.635 131.667 581.135 140.917 584.135 146.75C588.802 157.083 598.968 162.25 614.635 162.25C630.218 162.25 640.343 157.083 645.01 146.75C648.01 140.917 649.51 131.667 649.51 119V5.75H688.635V119C688.635 138.583 685.593 153.833 679.51 164.75C668.177 184.75 646.552 194.75 614.635 194.75C582.718 194.75 561.052 184.75 549.635 164.75C543.552 153.833 540.51 138.583 540.51 119V5.75ZM845.305 5.75V38.375H790.18V190H751.43V38.375H696.055V5.75H845.305ZM1033.15 5.75H1088.52V190H1052.65V65.375C1052.65 61.7917 1052.69 56.7917 1052.77 50.375C1052.85 43.875 1052.9 38.875 1052.9 35.375L1018.02 190H980.645L946.02 35.375C946.02 38.875 946.062 43.875 946.145 50.375C946.228 56.7917 946.27 61.7917 946.27 65.375V190H910.395V5.75H966.395L999.895 150.625L1033.15 5.75ZM1246.44 38.375H1148.94V77.5H1238.44V109.5H1148.94V156.875H1250.94V190H1111.31V5.75H1246.44V38.375Z" fill="white"/>
</svg>
