<svg width="1244" height="196" viewBox="0 0 1244 196" fill="none" xmlns="http://www.w3.org/2000/svg">
<rect width="1244" height="196" fill="#1E1E1E"/>
<path d="M103.25 64.375C103.25 54.7917 100.708 47.9583 95.625 43.875C90.625 39.7917 83.5833 37.75 74.5 37.75H38.625V92H74.5C83.5833 92 90.625 89.7917 95.625 85.375C100.708 80.9583 103.25 73.9583 103.25 64.375ZM141.375 64.125C141.375 85.875 135.875 101.25 124.875 110.25C113.875 119.25 98.1667 123.75 77.75 123.75H38.625V190H0.375V5.75H80.625C99.125 5.75 113.875 10.5 124.875 20C135.875 29.5 141.375 44.2083 141.375 64.125ZM193.39 37.75V87.25H237.015C245.682 87.25 252.182 86.25 256.515 84.25C264.182 80.75 268.015 73.8333 268.015 63.5C268.015 52.3333 264.307 44.8333 256.89 41C252.723 38.8333 246.473 37.75 238.14 37.75H193.39ZM246.14 5.75C259.057 6 268.973 7.58333 275.89 10.5C282.89 13.4167 288.807 17.7083 293.64 23.375C297.64 28.0417 300.807 33.2083 303.14 38.875C305.473 44.5417 306.64 51 306.64 58.25C306.64 67 304.432 75.625 300.015 84.125C295.598 92.5417 288.307 98.5 278.14 102C286.64 105.417 292.64 110.292 296.14 116.625C299.723 122.875 301.515 132.458 301.515 145.375V157.75C301.515 166.167 301.848 171.875 302.515 174.875C303.515 179.625 305.848 183.125 309.515 185.375V190H267.14C265.973 185.917 265.14 182.625 264.64 180.125C263.64 174.958 263.098 169.667 263.015 164.25L262.765 147.125C262.598 135.375 260.432 127.542 256.265 123.625C252.182 119.708 244.473 117.75 233.14 117.75H193.39V190H155.765V5.75H246.14ZM406.03 162.5C421.28 162.5 433.363 156.875 442.28 145.625C451.28 134.375 455.78 118.375 455.78 97.625C455.78 76.9583 451.28 61 442.28 49.75C433.363 38.4167 421.28 32.75 406.03 32.75C390.78 32.75 378.613 38.375 369.53 49.625C360.447 60.875 355.905 76.875 355.905 97.625C355.905 118.375 360.447 134.375 369.53 145.625C378.613 156.875 390.78 162.5 406.03 162.5ZM494.28 97.625C494.28 130.708 484.988 156.042 466.405 173.625C452.488 187.958 432.363 195.125 406.03 195.125C379.697 195.125 359.572 187.958 345.655 173.625C326.988 156.042 317.655 130.708 317.655 97.625C317.655 63.875 326.988 38.5417 345.655 21.625C359.572 7.29167 379.697 0.125 406.03 0.125C432.363 0.125 452.488 7.29167 466.405 21.625C484.988 38.5417 494.28 63.875 494.28 97.625ZM530.92 120.125V124.375C531.253 138.625 532.795 148.667 535.545 154.5C538.378 160.25 544.378 163.125 553.545 163.125C562.628 163.125 568.628 159.958 571.545 153.625C573.295 149.875 574.17 143.542 574.17 134.625V5.75H612.67V134C612.67 149.667 609.962 162.083 604.545 171.25C595.378 186.75 578.837 194.5 554.92 194.5C531.003 194.5 514.962 188.25 506.795 175.75C498.628 163.167 494.545 146.042 494.545 124.375V120.125H530.92ZM771.81 38.375H674.31V77.5H763.81V109.5H674.31V156.875H776.31V190H636.685V5.75H771.81V38.375ZM782.95 99.375C782.95 67.2083 791.575 42.4167 808.825 25C823.825 9.83333 842.908 2.25 866.075 2.25C897.075 2.25 919.742 12.4167 934.075 32.75C941.992 44.1667 946.242 55.625 946.825 67.125H908.325C905.825 58.2917 902.617 51.625 898.7 47.125C891.7 39.125 881.325 35.125 867.575 35.125C853.575 35.125 842.533 40.7917 834.45 52.125C826.367 63.375 822.325 79.3333 822.325 100C822.325 120.667 826.575 136.167 835.075 146.5C843.658 156.75 854.533 161.875 867.7 161.875C881.2 161.875 891.492 157.458 898.575 148.625C902.492 143.875 905.742 136.75 908.325 127.25H946.45C943.117 147.333 934.575 163.667 920.825 176.25C907.158 188.833 889.617 195.125 868.2 195.125C841.7 195.125 820.867 186.625 805.7 169.625C790.533 152.542 782.95 129.125 782.95 99.375ZM1094.47 5.75V38.375H1039.34V190H1000.59V38.375H945.215V5.75H1094.47ZM1129.6 133.125C1130.77 141.542 1133.06 147.833 1136.48 152C1142.73 159.583 1153.44 163.375 1168.6 163.375C1177.69 163.375 1185.06 162.375 1190.73 160.375C1201.48 156.542 1206.85 149.417 1206.85 139C1206.85 132.917 1204.19 128.208 1198.85 124.875C1193.52 121.625 1185.15 118.75 1173.73 116.25L1154.23 111.875C1135.06 107.542 1121.81 102.833 1114.48 97.75C1102.06 89.25 1095.85 75.9583 1095.85 57.875C1095.85 41.375 1101.85 27.6667 1113.85 16.75C1125.85 5.83333 1143.48 0.375 1166.73 0.375C1186.15 0.375 1202.69 5.54167 1216.35 15.875C1230.1 26.125 1237.31 41.0417 1237.98 60.625H1200.98C1200.31 49.5417 1195.48 41.6667 1186.48 37C1180.48 33.9167 1173.02 32.375 1164.1 32.375C1154.19 32.375 1146.27 34.375 1140.35 38.375C1134.44 42.375 1131.48 47.9583 1131.48 55.125C1131.48 61.7083 1134.4 66.625 1140.23 69.875C1143.98 72.0417 1151.98 74.5833 1164.23 77.5L1195.98 85.125C1209.9 88.4583 1220.4 92.9167 1227.48 98.5C1238.48 107.167 1243.98 119.708 1243.98 136.125C1243.98 152.958 1237.52 166.958 1224.6 178.125C1211.77 189.208 1193.6 194.75 1170.1 194.75C1146.1 194.75 1127.23 189.292 1113.48 178.375C1099.73 167.375 1092.85 152.292 1092.85 133.125H1129.6Z" fill="#081C15"/>
</svg>
