{
  "accessors": [
    {
      "bufferView": 2,
      "componentType": 5126,
      "count": 65532,
      "max": [
        0.3688110113143921,
        0.37114301323890686,
        0.37033599615097046
      ],
      "min": [
        -0.3688110113143921,
        -0.37156999111175537,
        -0.36873099207878113
      ],
      "type": "VEC3"
    },
    {
      "bufferView": 2,
      "byteOffset": 786384,
      "componentType": 5126,
      "count": 65532,
      "max": [
        1.0,
        0.999997615814209,
        1.0
      ],
      "min": [
        -1.0,
        -0.9999973773956299,
        -1.0
      ],
      "type": "VEC3"
    },
    {
      "bufferView": 3,
      "componentType": 5126,
      "count": 65532,
      "max": [
        0.9940078854560852,
        0.9999781250953674,
        0.9999995827674866,
        1.0
      ],
      "min": [
        -0.9999762177467346,
        -1.0,
        -0.9999997615814209,
        1.0
      ],
      "type": "VEC4"
    },
    {
      "bufferView": 1,
      "componentType": 5126,
      "count": 65532,
      "max": [
        0.9940310120582581,
        0.991907000541687
      ],
      "min": [
        0.007323999889194965,
        0.007323999889194965
      ],
      "type": "VEC2"
    },
    {
      "bufferView": 0,
      "componentType": 5125,
      "count": 344853,
      "type": "SCALAR"
    },
    {
      "bufferView": 2,
      "byteOffset": 1572768,
      "componentType": 5126,
      "count": 65532,
      "max": [
        0.37108099460601807,
        0.3717130124568939,
        0.37033599615097046
      ],
      "min": [
        -0.37108099460601807,
        -0.3717130124568939,
        -0.37033599615097046
      ],
      "type": "VEC3"
    },
    {
      "bufferView": 2,
      "byteOffset": 2359152,
      "componentType": 5126,
      "count": 65532,
      "max": [
        0.999883770942688,
        0.9999865293502808,
        0.9999011754989624
      ],
      "min": [
        -0.999883770942688,
        -0.9999945163726807,
        -0.9999969005584717
      ],
      "type": "VEC3"
    },
    {
      "bufferView": 3,
      "byteOffset": 1048512,
      "componentType": 5126,
      "count": 65532,
      "max": [
        0.999156653881073,
        0.9999781250953674,
        0.999927282333374,
        1.0
      ],
      "min": [
        -0.9992122650146484,
        -1.0,
        -0.9999958276748657,
        1.0
      ],
      "type": "VEC4"
    },
    {
      "bufferView": 1,
      "byteOffset": 524256,
      "componentType": 5126,
      "count": 65532,
      "max": [
        0.9925310015678406,
        0.9906290173530579
      ],
      "min": [
        0.008159000426530838,
        0.007323999889194965
      ],
      "type": "VEC2"
    },
    {
      "bufferView": 0,
      "byteOffset": 1379412,
      "componentType": 5125,
      "count": 359289,
      "type": "SCALAR"
    },
    {
      "bufferView": 2,
      "byteOffset": 3145536,
      "componentType": 5126,
      "count": 12557,
      "max": [
        0.36944401264190674,
        0.37156999111175537,
        0.3671030104160309
      ],
      "min": [
        -0.36581701040267944,
        -0.3663780093193054,
        -0.3698509931564331
      ],
      "type": "VEC3"
    },
    {
      "bufferView": 2,
      "byteOffset": 3296220,
      "componentType": 5126,
      "count": 12557,
      "max": [
        0.9953188896179199,
        0.9999921321868896,
        0.9898168444633484
      ],
      "min": [
        -0.9950593113899231,
        -0.9828508496284485,
        -0.9999011754989624
      ],
      "type": "VEC3"
    },
    {
      "bufferView": 3,
      "byteOffset": 2097024,
      "componentType": 5126,
      "count": 12557,
      "max": [
        0.8758707046508789,
        0.9813790917396545,
        0.9996274709701538,
        1.0
      ],
      "min": [
        -0.9999762177467346,
        -0.9814379811286926,
        -0.9985802173614502,
        1.0
      ],
      "type": "VEC4"
    },
    {
      "bufferView": 1,
      "byteOffset": 1048512,
      "componentType": 5126,
      "count": 12557,
      "max": [
        0.9759089946746826,
        0.9886770248413086
      ],
      "min": [
        0.007323999889194965,
        0.008298000320792198
      ],
      "type": "VEC2"
    },
    {
      "bufferView": 0,
      "byteOffset": 2816568,
      "componentType": 5125,
      "count": 57906,
      "type": "SCALAR"
    }
  ],
  "asset": {
    "extras": {
      "author": "Abe95 (https://sketchfab.com/Abe95)",
      "license": "CC-BY-4.0 (http://creativecommons.org/licenses/by/4.0/)",
      "source": "https://sketchfab.com/3d-models/chinatown-market-smiley-basketball-bd46ed8a65de4f8bb14c24e7d9d934d0",
      "title": "Chinatown Market Smiley Basketball"
    },
    "generator": "Sketchfab-12.67.0",
    "version": "2.0"
  },
  "bufferViews": [
    {
      "buffer": 0,
      "byteLength": 3048192,
      "name": "floatBufferViews",
      "target": 34963
    },
    {
      "buffer": 0,
      "byteLength": 1148968,
      "byteOffset": 3048192,
      "byteStride": 8,
      "name": "floatBufferViews",
      "target": 34962
    },
    {
      "buffer": 0,
      "byteLength": 3446904,
      "byteOffset": 4197160,
      "byteStride": 12,
      "name": "floatBufferViews",
      "target": 34962
    },
    {
      "buffer": 0,
      "byteLength": 2297936,
      "byteOffset": 7644064,
      "byteStride": 16,
      "name": "floatBufferViews",
      "target": 34962
    }
  ],
  "buffers": [
    {
      "byteLength": 9942000,
      "uri": "scene.bin"
    }
  ],
  "images": [
    {
      "uri": "textures/Def_Material_baseColor.jpeg"
    },
    {
      "uri": "textures/Def_Material_metallicRoughness.png"
    },
    {
      "uri": "textures/Def_Material_normal.png"
    }
  ],
  "materials": [
    {
      "doubleSided": true,
      "name": "Def_Material",
      "normalTexture": {
        "index": 2
      },
      "pbrMetallicRoughness": {
        "baseColorTexture": {
          "index": 0
        },
        "metallicFactor": 0.09899296978909368,
        "metallicRoughnessTexture": {
          "index": 1
        }
      }
    }
  ],
  "meshes": [
    {
      "name": "Object_0",
      "primitives": [
        {
          "attributes": {
            "NORMAL": 1,
            "POSITION": 0,
            "TANGENT": 2,
            "TEXCOORD_0": 3
          },
          "indices": 4,
          "material": 0,
          "mode": 4
        }
      ]
    },
    {
      "name": "Object_1",
      "primitives": [
        {
          "attributes": {
            "NORMAL": 6,
            "POSITION": 5,
            "TANGENT": 7,
            "TEXCOORD_0": 8
          },
          "indices": 9,
          "material": 0,
          "mode": 4
        }
      ]
    },
    {
      "name": "Object_2",
      "primitives": [
        {
          "attributes": {
            "NORMAL": 11,
            "POSITION": 10,
            "TANGENT": 12,
            "TEXCOORD_0": 13
          },
          "indices": 14,
          "material": 0,
          "mode": 4
        }
      ]
    }
  ],
  "nodes": [
    {
      "children": [
        1
      ],
      "matrix": [
        1.0,
        0.0,
        0.0,
        0.0,
        0.0,
        2.220446049250313e-16,
        -1.0,
        0.0,
        0.0,
        1.0,
        2.220446049250313e-16,
        0.0,
        0.0,
        0.0,
        0.0,
        1.0
      ],
      "name": "Sketchfab_model"
    },
    {
      "children": [
        2,
        3,
        4
      ],
      "name": "Chinatown_Market_Basketball.obj.cleaner.materialmerger.gles"
    },
    {
      "mesh": 0,
      "name": "Object_2"
    },
    {
      "mesh": 1,
      "name": "Object_3"
    },
    {
      "mesh": 2,
      "name": "Object_4"
    }
  ],
  "samplers": [
    {
      "magFilter": 9729,
      "minFilter": 9987,
      "wrapS": 10497,
      "wrapT": 10497
    }
  ],
  "scene": 0,
  "scenes": [
    {
      "name": "Sketchfab_Scene",
      "nodes": [
        0
      ]
    }
  ],
  "textures": [
    {
      "sampler": 0,
      "source": 0
    },
    {
      "sampler": 0,
      "source": 1
    },
    {
      "sampler": 0,
      "source": 2
    }
  ]
}
