<svg width="1127" height="196" viewBox="0 0 1127 196" fill="none" xmlns="http://www.w3.org/2000/svg">
<rect width="1127" height="196" fill="#1E1E1E"/>
<path d="M0.5 99.375C0.5 67.2083 9.125 42.4167 26.375 25C41.375 9.83333 60.4583 2.25 83.625 2.25C114.625 2.25 137.292 12.4167 151.625 32.75C159.542 44.1667 163.792 55.625 164.375 67.125H125.875C123.375 58.2917 120.167 51.625 116.25 47.125C109.25 39.125 98.875 35.125 85.125 35.125C71.125 35.125 60.0833 40.7917 52 52.125C43.9167 63.375 39.875 79.3333 39.875 100C39.875 120.667 44.125 136.167 52.625 146.5C61.2083 156.75 72.0833 161.875 85.25 161.875C98.75 161.875 109.042 157.458 116.125 148.625C120.042 143.875 123.292 136.75 125.875 127.25H164C160.667 147.333 152.125 163.667 138.375 176.25C124.708 188.833 107.167 195.125 85.75 195.125C59.25 195.125 38.4167 186.625 23.25 169.625C8.08333 152.542 0.5 129.125 0.5 99.375ZM259.64 162.5C274.89 162.5 286.973 156.875 295.89 145.625C304.89 134.375 309.39 118.375 309.39 97.625C309.39 76.9583 304.89 61 295.89 49.75C286.973 38.4167 274.89 32.75 259.64 32.75C244.39 32.75 232.223 38.375 223.14 49.625C214.057 60.875 209.515 76.875 209.515 97.625C209.515 118.375 214.057 134.375 223.14 145.625C232.223 156.875 244.39 162.5 259.64 162.5ZM347.89 97.625C347.89 130.708 338.598 156.042 320.015 173.625C306.098 187.958 285.973 195.125 259.64 195.125C233.307 195.125 213.182 187.958 199.265 173.625C180.598 156.042 171.265 130.708 171.265 97.625C171.265 63.875 180.598 38.5417 199.265 21.625C213.182 7.29167 233.307 0.125 259.64 0.125C285.973 0.125 306.098 7.29167 320.015 21.625C338.598 38.5417 347.89 63.875 347.89 97.625ZM361.405 5.75H401.78L475.155 134.375V5.75H511.03V190H472.53L397.28 59.125V190H361.405V5.75ZM665.545 5.75V38.375H610.42V190H571.67V38.375H516.295V5.75H665.545ZM704.185 120.375H750.935L727.935 47.875L704.185 120.375ZM706.56 5.75H750.06L815.31 190H773.56L761.685 152.125H693.81L681.06 190H640.81L706.56 5.75ZM815.45 99.375C815.45 67.2083 824.075 42.4167 841.325 25C856.325 9.83333 875.408 2.25 898.575 2.25C929.575 2.25 952.242 12.4167 966.575 32.75C974.492 44.1667 978.742 55.625 979.325 67.125H940.825C938.325 58.2917 935.117 51.625 931.2 47.125C924.2 39.125 913.825 35.125 900.075 35.125C886.075 35.125 875.033 40.7917 866.95 52.125C858.867 63.375 854.825 79.3333 854.825 100C854.825 120.667 859.075 136.167 867.575 146.5C876.158 156.75 887.033 161.875 900.2 161.875C913.7 161.875 923.992 157.458 931.075 148.625C934.992 143.875 938.242 136.75 940.825 127.25H978.95C975.617 147.333 967.075 163.667 953.325 176.25C939.658 188.833 922.117 195.125 900.7 195.125C874.2 195.125 853.367 186.625 838.2 169.625C823.033 152.542 815.45 129.125 815.45 99.375ZM1126.97 5.75V38.375H1071.84V190H1033.09V38.375H977.715V5.75H1126.97Z" fill="black"/>
</svg>
